<?xml version="1.0" standalone="no"?><!DOCTYPE svg PUBLIC "-//W3C//DTD SVG 1.1//EN" "http://www.w3.org/Graphics/SVG/1.1/DTD/svg11.dtd"><svg t="1655103888935" class="icon" viewBox="0 0 1024 1024" version="1.1" xmlns="http://www.w3.org/2000/svg" p-id="88675" xmlns:xlink="http://www.w3.org/1999/xlink" width="200" height="200"><defs><style type="text/css">@font-face { font-family: feedback-iconfont; src: url("//at.alicdn.com/t/font_1031158_u69w8yhxdu.woff2?t=1630033759944") format("woff2"), url("//at.alicdn.com/t/font_1031158_u69w8yhxdu.woff?t=1630033759944") format("woff"), url("//at.alicdn.com/t/font_1031158_u69w8yhxdu.ttf?t=1630033759944") format("truetype"); }
</style></defs><path d="M981.333333 725.333333a42.666667 42.666667 0 0 1 42.666667 42.666667v128l-0.213333 7.509333A128 128 0 0 1 896 1024h-128l-4.992-0.298667A42.666667 42.666667 0 0 1 768 938.666667h128l4.992-0.298667A42.666667 42.666667 0 0 0 938.666667 896v-128l0.298666-4.992A42.666667 42.666667 0 0 1 981.333333 725.333333zM42.666667 725.333333a42.666667 42.666667 0 0 1 42.368 37.674667L85.333333 768v128a42.666667 42.666667 0 0 0 37.674667 42.368L128 938.666667h128a42.666667 42.666667 0 0 1 4.992 85.034666L256 1024H128a128 128 0 0 1-127.786667-120.490667L0 896v-128a42.666667 42.666667 0 0 1 42.666667-42.666667zM512 170.666667a213.333333 213.333333 0 0 1 138.666667 375.466666 298.496 298.496 0 0 1 159.829333 254.293334L810.666667 810.666667h-85.333334a213.333333 213.333333 0 0 0-426.453333-9.258667L298.666667 810.666667H213.333333a298.666667 298.666667 0 0 1 160-264.576A213.333333 213.333333 0 0 1 512 170.666667z m0 85.333333a128 128 0 1 0 0 256 128 128 0 0 0 0-256z m384-256a128 128 0 0 1 127.786667 120.490667L1024 128v128a42.666667 42.666667 0 0 1-85.034667 4.992L938.666667 256V128a42.666667 42.666667 0 0 0-37.674667-42.368L896 85.333333h-128a42.666667 42.666667 0 0 1-4.992-85.034666L768 0h128zM256 0l4.992 0.298667A42.666667 42.666667 0 0 1 256 85.333333H128l-4.992 0.298667A42.666667 42.666667 0 0 0 85.333333 128v128l-0.298666 4.992A42.666667 42.666667 0 0 1 0 256V128l0.213333-7.509333A128 128 0 0 1 128 0h128z" fill="#8a8a8a" p-id="88676"></path></svg>