<?xml version="1.0" standalone="no"?><!DOCTYPE svg PUBLIC "-//W3C//DTD SVG 1.1//EN" "http://www.w3.org/Graphics/SVG/1.1/DTD/svg11.dtd"><svg t="1655865104135" class="icon" viewBox="0 0 1024 1024" version="1.1" xmlns="http://www.w3.org/2000/svg" p-id="2247" xmlns:xlink="http://www.w3.org/1999/xlink" width="200" height="200"><defs><style type="text/css">@font-face { font-family: feedback-iconfont; src: url("//at.alicdn.com/t/font_1031158_u69w8yhxdu.woff2?t=1630033759944") format("woff2"), url("//at.alicdn.com/t/font_1031158_u69w8yhxdu.woff?t=1630033759944") format("woff"), url("//at.alicdn.com/t/font_1031158_u69w8yhxdu.ttf?t=1630033759944") format("truetype"); }
</style></defs><path d="M800 448a32 32 0 1 1 0 64h-65.728c-8.448 77.312-47.04 144.32-102.4 184.448 83.456 33.92 156.16 101.12 198.72 183.68l3.072 6.272c34.112-15.616 58.624-48.768 61.952-87.872l0.384-9.216v-138.624a32 32 0 0 1 63.488-5.76l0.512 5.76v138.624a170.688 170.688 0 0 1-159.872 170.368l-10.816 0.32h-138.624a32 32 0 0 1-5.76-63.488l5.76-0.512h115.648c-53.76-93.376-154.368-160-254.336-160-102.72 0-206.272 66.944-259.2 160h120.512a32 32 0 0 1 5.76 63.488l-5.76 0.512H234.688a170.688 170.688 0 0 1-170.368-159.872L64 789.312v-138.624a32 32 0 0 1 63.488-5.76l0.512 5.76v138.624c0 41.6 23.808 77.696 58.624 95.296l-4.48 9.408c40.32-89.472 118.592-162.56 209.152-198.336-54.912-40-93.12-106.752-101.568-183.68H224a32 32 0 0 1 0-64h576z m-130.24 64h-315.52c12.8 91.52 79.488 160 157.76 160 78.272 0 144.96-68.48 157.76-160z m119.552-448a170.688 170.688 0 0 1 170.368 159.872l0.32 10.816v138.624a32 32 0 0 1-63.488 5.76L896 373.312V234.688c0-55.808-42.88-101.632-97.472-106.24L789.312 128h-138.624a32 32 0 0 1-5.76-63.488l5.76-0.512h138.624z m-416 0a32 32 0 0 1 5.76 63.488L373.312 128H234.688c-55.808 0-101.632 42.88-106.24 97.472L128 234.688v138.624a32 32 0 0 1-63.488 5.76L64 373.312V234.688a170.688 170.688 0 0 1 159.872-170.368L234.688 64h138.624zM512 224c94.72 0 174.72 66.56 207.744 160h-69.12C622.72 326.4 570.56 288 512 288c-58.56 0-110.72 38.4-138.56 96h-69.12C337.28 290.56 417.152 224 512 224z" p-id="2248"></path></svg>